<svg width="19" height="17" viewBox="0 0 19 17" fill="none" xmlns="http://www.w3.org/2000/svg">
<path fill-rule="evenodd" clip-rule="evenodd" d="M18.0454 8.36346C18.0454 10.5334 17.1451 12.6145 15.5425 14.1489C13.9399 15.6833 11.7663 16.5453 9.49992 16.5453C7.23353 16.5453 5.05996 15.6833 3.45737 14.1489C1.85479 12.6145 0.954468 10.5334 0.954468 8.36346C0.954468 6.19351 1.85479 4.11243 3.45737 2.57804C5.05996 1.04365 7.23353 0.181641 9.49992 0.181641C11.7663 0.181641 13.9399 1.04365 15.5425 2.57804C17.1451 4.11243 18.0454 6.19351 18.0454 8.36346ZM13.7726 8.36346C13.7726 9.44843 13.3225 10.489 12.5212 11.2562C11.7199 12.0234 10.6331 12.4544 9.49992 12.4544C8.36672 12.4544 7.27994 12.0234 6.47865 11.2562C5.67736 10.489 5.2272 9.44843 5.2272 8.36346C5.2272 7.27848 5.67736 6.23794 6.47865 5.47075C7.27994 4.70355 8.36672 4.27255 9.49992 4.27255C10.6331 4.27255 11.7199 4.70355 12.5212 5.47075C13.3225 6.23794 13.7727 7.27848 13.7726 8.36346Z" fill="white"/>
</svg>
