<svg width="47" height="45" viewBox="0 0 47 45" fill="none" xmlns="http://www.w3.org/2000/svg">
<path fill-rule="evenodd" clip-rule="evenodd" d="M23.5 0C10.5216 0 0 10.0739 0 22.5C0 34.9261 10.5216 45 23.5 45C36.4784 45 47 34.9261 47 22.5C47 10.0739 36.4784 0 23.5 0ZM4.27273 22.5C4.27273 26.775 5.79595 30.7105 8.34891 33.8359C10.1418 31.5816 12.4548 29.7547 15.1072 28.4979C17.7595 27.2411 20.6795 26.5884 23.6389 26.5909C26.56 26.5883 29.4432 27.224 32.0688 28.4498C34.6944 29.6755 36.9932 31.4589 38.79 33.6641C40.641 31.3396 41.8873 28.6266 42.4258 25.7494C42.9643 22.8722 42.7795 19.9136 41.8866 17.1184C40.9937 14.3232 39.4185 11.7717 37.2913 9.67508C35.164 7.57846 32.5459 5.99699 29.6535 5.0615C26.7612 4.126 23.6777 3.8634 20.6583 4.2954C17.6389 4.7274 14.7704 5.8416 12.29 7.54579C9.80964 9.24999 7.78878 11.4952 6.39463 14.0956C5.00047 16.6961 4.27311 19.577 4.27273 22.5ZM23.5 40.9091C19.0862 40.9154 14.8056 39.4616 11.3825 36.7936C12.7604 34.9051 14.5942 33.3632 16.7281 32.2991C18.8621 31.235 21.2329 30.6802 23.6389 30.6818C26.0148 30.68 28.357 31.2209 30.4708 32.2597C32.5846 33.2985 34.4091 34.8052 35.7926 36.6545C32.343 39.4092 27.9919 40.9151 23.5 40.9091Z" fill="white"/>
</svg>
