<svg width="53" height="56" viewBox="0 0 53 56" fill="none" xmlns="http://www.w3.org/2000/svg">
<path d="M52.4846 22.8641H50.35V22.75H26.5V33.75H41.4765C39.2916 40.1534 33.4205 44.75 26.5 44.75C17.7192 44.75 10.6 37.3621 10.6 28.25C10.6 19.1379 17.7192 11.75 26.5 11.75C30.5532 11.75 34.2407 13.3367 37.0483 15.9286L44.5438 8.15025C39.811 3.57288 33.4801 0.75 26.5 0.75C11.8654 0.75 0 13.0631 0 28.25C0 43.4369 11.8654 55.75 26.5 55.75C41.1346 55.75 53 43.4369 53 28.25C53 26.4061 52.8172 24.6063 52.4846 22.8641Z" fill="#FFC107"/>
</svg>
